<mxfile host="app.diagrams.net" modified="2023-10-10T01:26:58.588Z" agent="Mozilla/5.0 (Macintosh; Intel Mac OS X 10_15_7) AppleWebKit/537.36 (KHTML, like Gecko) Chrome/116.0.0.0 Safari/537.36" etag="U-0EuLgXXQkDfaiS79Ti" version="22.0.4" type="github">
  <diagram id="R2lEEEUBdFMjLlhIrx00" name="Page-1">
    <mxGraphModel dx="1434" dy="796" grid="1" gridSize="10" guides="1" tooltips="1" connect="1" arrows="1" fold="1" page="1" pageScale="1" pageWidth="850" pageHeight="1100" math="0" shadow="0" extFonts="Permanent Marker^https://fonts.googleapis.com/css?family=Permanent+Marker">
      <root>
        <mxCell id="0" />
        <mxCell id="1" parent="0" />
        <mxCell id="C-vyLk0tnHw3VtMMgP7b-1" value="" style="edgeStyle=entityRelationEdgeStyle;endArrow=ERzeroToMany;startArrow=ERone;endFill=1;startFill=0;" parent="1" target="Otil69ANgTs7UE6t1iHH-21" edge="1">
          <mxGeometry width="100" height="100" relative="1" as="geometry">
            <mxPoint x="300" y="180" as="sourcePoint" />
            <mxPoint x="380" y="210" as="targetPoint" />
          </mxGeometry>
        </mxCell>
        <mxCell id="C-vyLk0tnHw3VtMMgP7b-12" value="" style="edgeStyle=entityRelationEdgeStyle;endArrow=ERzeroToMany;startArrow=ERone;endFill=1;startFill=0;entryX=0;entryY=0.5;entryDx=0;entryDy=0;" parent="1" target="Otil69ANgTs7UE6t1iHH-22" edge="1">
          <mxGeometry width="100" height="100" relative="1" as="geometry">
            <mxPoint x="570" y="200" as="sourcePoint" />
            <mxPoint x="570" y="390" as="targetPoint" />
          </mxGeometry>
        </mxCell>
        <mxCell id="Otil69ANgTs7UE6t1iHH-11" value="" style="edgeStyle=orthogonalEdgeStyle;rounded=0;orthogonalLoop=1;jettySize=auto;html=1;entryX=0.5;entryY=0;entryDx=0;entryDy=0;" edge="1" parent="1" source="Otil69ANgTs7UE6t1iHH-53" target="Otil69ANgTs7UE6t1iHH-25">
          <mxGeometry relative="1" as="geometry">
            <mxPoint x="719.5" y="400" as="sourcePoint" />
            <mxPoint x="719.5" y="480" as="targetPoint" />
          </mxGeometry>
        </mxCell>
        <mxCell id="Otil69ANgTs7UE6t1iHH-19" value="" style="edgeStyle=orthogonalEdgeStyle;rounded=0;orthogonalLoop=1;jettySize=auto;html=1;entryX=0.5;entryY=0;entryDx=0;entryDy=0;" edge="1" parent="1" target="Otil69ANgTs7UE6t1iHH-23">
          <mxGeometry relative="1" as="geometry">
            <mxPoint x="245" y="220" as="sourcePoint" />
            <mxPoint x="245" y="300" as="targetPoint" />
          </mxGeometry>
        </mxCell>
        <mxCell id="Otil69ANgTs7UE6t1iHH-20" value="Doctor&amp;nbsp;" style="rounded=0;whiteSpace=wrap;html=1;" vertex="1" parent="1">
          <mxGeometry x="180" y="150" width="120" height="60" as="geometry" />
        </mxCell>
        <mxCell id="Otil69ANgTs7UE6t1iHH-21" value="Department&amp;nbsp;" style="rounded=0;whiteSpace=wrap;html=1;" vertex="1" parent="1">
          <mxGeometry x="450" y="170" width="120" height="60" as="geometry" />
        </mxCell>
        <mxCell id="Otil69ANgTs7UE6t1iHH-22" value="Insurance Policy&amp;nbsp;" style="rounded=0;whiteSpace=wrap;html=1;" vertex="1" parent="1">
          <mxGeometry x="670" y="340" width="120" height="60" as="geometry" />
        </mxCell>
        <mxCell id="Otil69ANgTs7UE6t1iHH-23" value="Pateints" style="rounded=0;whiteSpace=wrap;html=1;" vertex="1" parent="1">
          <mxGeometry x="190" y="340" width="120" height="60" as="geometry" />
        </mxCell>
        <mxCell id="Otil69ANgTs7UE6t1iHH-25" value="Premium Payment" style="rounded=0;whiteSpace=wrap;html=1;" vertex="1" parent="1">
          <mxGeometry x="660" y="520" width="120" height="60" as="geometry" />
        </mxCell>
        <mxCell id="Otil69ANgTs7UE6t1iHH-33" style="edgeStyle=orthogonalEdgeStyle;rounded=0;orthogonalLoop=1;jettySize=auto;html=1;exitX=0.5;exitY=1;exitDx=0;exitDy=0;entryX=0.5;entryY=0;entryDx=0;entryDy=0;" edge="1" parent="1" source="Otil69ANgTs7UE6t1iHH-26" target="Otil69ANgTs7UE6t1iHH-20">
          <mxGeometry relative="1" as="geometry" />
        </mxCell>
        <mxCell id="Otil69ANgTs7UE6t1iHH-26" value="&lt;u&gt;Doctor_ID&lt;/u&gt;" style="ellipse;whiteSpace=wrap;html=1;" vertex="1" parent="1">
          <mxGeometry x="80" y="70" width="70" height="40" as="geometry" />
        </mxCell>
        <mxCell id="Otil69ANgTs7UE6t1iHH-27" value="" style="edgeStyle=orthogonalEdgeStyle;rounded=0;orthogonalLoop=1;jettySize=auto;html=1;entryX=0.5;entryY=0;entryDx=0;entryDy=0;" edge="1" parent="1">
          <mxGeometry relative="1" as="geometry">
            <mxPoint x="150" y="620" as="sourcePoint" />
            <mxPoint x="150.5" y="710" as="targetPoint" />
          </mxGeometry>
        </mxCell>
        <mxCell id="Otil69ANgTs7UE6t1iHH-34" style="edgeStyle=orthogonalEdgeStyle;rounded=0;orthogonalLoop=1;jettySize=auto;html=1;exitX=0.5;exitY=1;exitDx=0;exitDy=0;" edge="1" parent="1" source="Otil69ANgTs7UE6t1iHH-28">
          <mxGeometry relative="1" as="geometry">
            <mxPoint x="240" y="140" as="targetPoint" />
          </mxGeometry>
        </mxCell>
        <mxCell id="Otil69ANgTs7UE6t1iHH-28" value="Name" style="ellipse;whiteSpace=wrap;html=1;" vertex="1" parent="1">
          <mxGeometry x="160" y="70" width="70" height="40" as="geometry" />
        </mxCell>
        <mxCell id="Otil69ANgTs7UE6t1iHH-35" style="edgeStyle=orthogonalEdgeStyle;rounded=0;orthogonalLoop=1;jettySize=auto;html=1;exitX=0.5;exitY=1;exitDx=0;exitDy=0;" edge="1" parent="1" source="Otil69ANgTs7UE6t1iHH-29">
          <mxGeometry relative="1" as="geometry">
            <mxPoint x="240" y="150" as="targetPoint" />
          </mxGeometry>
        </mxCell>
        <mxCell id="Otil69ANgTs7UE6t1iHH-29" value="email" style="ellipse;whiteSpace=wrap;html=1;" vertex="1" parent="1">
          <mxGeometry x="240" y="70" width="70" height="40" as="geometry" />
        </mxCell>
        <mxCell id="Otil69ANgTs7UE6t1iHH-36" style="edgeStyle=orthogonalEdgeStyle;rounded=0;orthogonalLoop=1;jettySize=auto;html=1;exitX=0.5;exitY=1;exitDx=0;exitDy=0;" edge="1" parent="1" source="Otil69ANgTs7UE6t1iHH-31">
          <mxGeometry relative="1" as="geometry">
            <mxPoint x="240" y="150" as="targetPoint" />
          </mxGeometry>
        </mxCell>
        <mxCell id="Otil69ANgTs7UE6t1iHH-31" value="Specialization&amp;nbsp;" style="ellipse;whiteSpace=wrap;html=1;" vertex="1" parent="1">
          <mxGeometry x="330" y="70" width="80" height="40" as="geometry" />
        </mxCell>
        <mxCell id="Otil69ANgTs7UE6t1iHH-40" style="edgeStyle=orthogonalEdgeStyle;rounded=0;orthogonalLoop=1;jettySize=auto;html=1;exitX=0.5;exitY=1;exitDx=0;exitDy=0;entryX=0.5;entryY=0;entryDx=0;entryDy=0;" edge="1" parent="1" source="Otil69ANgTs7UE6t1iHH-37" target="Otil69ANgTs7UE6t1iHH-21">
          <mxGeometry relative="1" as="geometry" />
        </mxCell>
        <mxCell id="Otil69ANgTs7UE6t1iHH-37" value="Dept_name&amp;nbsp;" style="ellipse;whiteSpace=wrap;html=1;" vertex="1" parent="1">
          <mxGeometry x="440" y="70" width="80" height="40" as="geometry" />
        </mxCell>
        <mxCell id="Otil69ANgTs7UE6t1iHH-41" style="edgeStyle=orthogonalEdgeStyle;rounded=0;orthogonalLoop=1;jettySize=auto;html=1;exitX=0.5;exitY=1;exitDx=0;exitDy=0;" edge="1" parent="1" source="Otil69ANgTs7UE6t1iHH-38">
          <mxGeometry relative="1" as="geometry">
            <mxPoint x="510" y="170" as="targetPoint" />
          </mxGeometry>
        </mxCell>
        <mxCell id="Otil69ANgTs7UE6t1iHH-38" value="&lt;blockquote style=&quot;margin: 0 0 0 40px; border: none; padding: 0px;&quot;&gt;Specialization&amp;nbsp;&lt;/blockquote&gt;" style="ellipse;whiteSpace=wrap;html=1;" vertex="1" parent="1">
          <mxGeometry x="550" y="70" width="80" height="40" as="geometry" />
        </mxCell>
        <mxCell id="Otil69ANgTs7UE6t1iHH-42" style="edgeStyle=orthogonalEdgeStyle;rounded=0;orthogonalLoop=1;jettySize=auto;html=1;exitX=0.5;exitY=1;exitDx=0;exitDy=0;" edge="1" parent="1" source="Otil69ANgTs7UE6t1iHH-39">
          <mxGeometry relative="1" as="geometry">
            <mxPoint x="510" y="170" as="targetPoint" />
          </mxGeometry>
        </mxCell>
        <mxCell id="Otil69ANgTs7UE6t1iHH-39" value="Year of creation" style="ellipse;whiteSpace=wrap;html=1;" vertex="1" parent="1">
          <mxGeometry x="670" y="90" width="80" height="40" as="geometry" />
        </mxCell>
        <mxCell id="Otil69ANgTs7UE6t1iHH-43" value="&lt;u&gt;Patient_ID&lt;/u&gt;" style="ellipse;whiteSpace=wrap;html=1;" vertex="1" parent="1">
          <mxGeometry x="100" y="440" width="70" height="40" as="geometry" />
        </mxCell>
        <mxCell id="Otil69ANgTs7UE6t1iHH-47" style="edgeStyle=orthogonalEdgeStyle;rounded=0;orthogonalLoop=1;jettySize=auto;html=1;exitX=0.5;exitY=0;exitDx=0;exitDy=0;" edge="1" parent="1" source="Otil69ANgTs7UE6t1iHH-44">
          <mxGeometry relative="1" as="geometry">
            <mxPoint x="235" y="410" as="targetPoint" />
          </mxGeometry>
        </mxCell>
        <mxCell id="Otil69ANgTs7UE6t1iHH-44" value="Name" style="ellipse;whiteSpace=wrap;html=1;" vertex="1" parent="1">
          <mxGeometry x="200" y="440" width="70" height="40" as="geometry" />
        </mxCell>
        <mxCell id="Otil69ANgTs7UE6t1iHH-48" style="edgeStyle=orthogonalEdgeStyle;rounded=0;orthogonalLoop=1;jettySize=auto;html=1;exitX=0.5;exitY=0;exitDx=0;exitDy=0;" edge="1" parent="1" source="Otil69ANgTs7UE6t1iHH-45">
          <mxGeometry relative="1" as="geometry">
            <mxPoint x="230" y="400" as="targetPoint" />
          </mxGeometry>
        </mxCell>
        <mxCell id="Otil69ANgTs7UE6t1iHH-45" value="phone number" style="ellipse;whiteSpace=wrap;html=1;" vertex="1" parent="1">
          <mxGeometry x="290" y="440" width="70" height="40" as="geometry" />
        </mxCell>
        <mxCell id="Otil69ANgTs7UE6t1iHH-46" style="edgeStyle=orthogonalEdgeStyle;rounded=0;orthogonalLoop=1;jettySize=auto;html=1;exitX=0.5;exitY=0;exitDx=0;exitDy=0;entryX=0.4;entryY=1.067;entryDx=0;entryDy=0;entryPerimeter=0;" edge="1" parent="1" source="Otil69ANgTs7UE6t1iHH-43" target="Otil69ANgTs7UE6t1iHH-23">
          <mxGeometry relative="1" as="geometry">
            <Array as="points">
              <mxPoint x="135" y="420" />
              <mxPoint x="238" y="420" />
            </Array>
          </mxGeometry>
        </mxCell>
        <mxCell id="Otil69ANgTs7UE6t1iHH-49" value="Has" style="rhombus;whiteSpace=wrap;html=1;" vertex="1" parent="1">
          <mxGeometry x="210" y="240" width="80" height="80" as="geometry" />
        </mxCell>
        <mxCell id="Otil69ANgTs7UE6t1iHH-50" style="edgeStyle=orthogonalEdgeStyle;rounded=0;orthogonalLoop=1;jettySize=auto;html=1;exitX=0.5;exitY=1;exitDx=0;exitDy=0;" edge="1" parent="1" source="Otil69ANgTs7UE6t1iHH-49" target="Otil69ANgTs7UE6t1iHH-49">
          <mxGeometry relative="1" as="geometry" />
        </mxCell>
        <mxCell id="Otil69ANgTs7UE6t1iHH-51" style="edgeStyle=orthogonalEdgeStyle;rounded=0;orthogonalLoop=1;jettySize=auto;html=1;exitX=0.5;exitY=0;exitDx=0;exitDy=0;" edge="1" parent="1" source="Otil69ANgTs7UE6t1iHH-49" target="Otil69ANgTs7UE6t1iHH-49">
          <mxGeometry relative="1" as="geometry" />
        </mxCell>
        <mxCell id="Otil69ANgTs7UE6t1iHH-52" value="Belongs TO" style="rhombus;whiteSpace=wrap;html=1;" vertex="1" parent="1">
          <mxGeometry x="330" y="150" width="80" height="80" as="geometry" />
        </mxCell>
        <mxCell id="Otil69ANgTs7UE6t1iHH-54" value="" style="edgeStyle=orthogonalEdgeStyle;rounded=0;orthogonalLoop=1;jettySize=auto;html=1;entryX=0.5;entryY=0;entryDx=0;entryDy=0;" edge="1" parent="1" target="Otil69ANgTs7UE6t1iHH-53">
          <mxGeometry relative="1" as="geometry">
            <mxPoint x="719.5" y="400" as="sourcePoint" />
            <mxPoint x="720" y="490" as="targetPoint" />
          </mxGeometry>
        </mxCell>
        <mxCell id="Otil69ANgTs7UE6t1iHH-53" value="Paid" style="rhombus;whiteSpace=wrap;html=1;" vertex="1" parent="1">
          <mxGeometry x="680" y="410" width="80" height="80" as="geometry" />
        </mxCell>
        <mxCell id="Otil69ANgTs7UE6t1iHH-55" value="Policy ID" style="ellipse;whiteSpace=wrap;html=1;" vertex="1" parent="1">
          <mxGeometry x="650" y="270" width="70" height="40" as="geometry" />
        </mxCell>
        <mxCell id="Otil69ANgTs7UE6t1iHH-58" style="edgeStyle=orthogonalEdgeStyle;rounded=0;orthogonalLoop=1;jettySize=auto;html=1;exitX=0.5;exitY=1;exitDx=0;exitDy=0;" edge="1" parent="1" source="Otil69ANgTs7UE6t1iHH-56">
          <mxGeometry relative="1" as="geometry">
            <mxPoint x="720" y="340" as="targetPoint" />
          </mxGeometry>
        </mxCell>
        <mxCell id="Otil69ANgTs7UE6t1iHH-56" value="Policy Name" style="ellipse;whiteSpace=wrap;html=1;" vertex="1" parent="1">
          <mxGeometry x="740" y="270" width="70" height="40" as="geometry" />
        </mxCell>
        <mxCell id="Otil69ANgTs7UE6t1iHH-57" style="edgeStyle=orthogonalEdgeStyle;rounded=0;orthogonalLoop=1;jettySize=auto;html=1;exitX=0.5;exitY=1;exitDx=0;exitDy=0;entryX=0.4;entryY=-0.017;entryDx=0;entryDy=0;entryPerimeter=0;" edge="1" parent="1" source="Otil69ANgTs7UE6t1iHH-55" target="Otil69ANgTs7UE6t1iHH-22">
          <mxGeometry relative="1" as="geometry" />
        </mxCell>
        <mxCell id="Otil69ANgTs7UE6t1iHH-59" value="Amount" style="ellipse;whiteSpace=wrap;html=1;" vertex="1" parent="1">
          <mxGeometry x="500" y="630" width="70" height="30" as="geometry" />
        </mxCell>
        <mxCell id="Otil69ANgTs7UE6t1iHH-63" style="edgeStyle=orthogonalEdgeStyle;rounded=0;orthogonalLoop=1;jettySize=auto;html=1;exitX=0.5;exitY=0;exitDx=0;exitDy=0;" edge="1" parent="1" source="Otil69ANgTs7UE6t1iHH-60">
          <mxGeometry relative="1" as="geometry">
            <mxPoint x="700" y="590" as="targetPoint" />
          </mxGeometry>
        </mxCell>
        <mxCell id="Otil69ANgTs7UE6t1iHH-60" value="Payment Date" style="ellipse;whiteSpace=wrap;html=1;" vertex="1" parent="1">
          <mxGeometry x="600" y="620" width="70" height="40" as="geometry" />
        </mxCell>
        <mxCell id="Otil69ANgTs7UE6t1iHH-62" style="edgeStyle=orthogonalEdgeStyle;rounded=0;orthogonalLoop=1;jettySize=auto;html=1;exitX=0.5;exitY=0;exitDx=0;exitDy=0;entryX=0.4;entryY=0.983;entryDx=0;entryDy=0;entryPerimeter=0;" edge="1" parent="1" source="Otil69ANgTs7UE6t1iHH-61" target="Otil69ANgTs7UE6t1iHH-25">
          <mxGeometry relative="1" as="geometry">
            <mxPoint x="720" y="590" as="targetPoint" />
          </mxGeometry>
        </mxCell>
        <mxCell id="Otil69ANgTs7UE6t1iHH-61" value="Policy_ID" style="ellipse;whiteSpace=wrap;html=1;" vertex="1" parent="1">
          <mxGeometry x="700" y="620" width="70" height="40" as="geometry" />
        </mxCell>
        <mxCell id="Otil69ANgTs7UE6t1iHH-65" style="edgeStyle=orthogonalEdgeStyle;rounded=0;orthogonalLoop=1;jettySize=auto;html=1;exitX=0.5;exitY=0;exitDx=0;exitDy=0;entryX=0.308;entryY=1.017;entryDx=0;entryDy=0;entryPerimeter=0;" edge="1" parent="1" source="Otil69ANgTs7UE6t1iHH-59" target="Otil69ANgTs7UE6t1iHH-25">
          <mxGeometry relative="1" as="geometry">
            <Array as="points">
              <mxPoint x="535" y="605" />
              <mxPoint x="710" y="605" />
              <mxPoint x="710" y="581" />
            </Array>
          </mxGeometry>
        </mxCell>
      </root>
    </mxGraphModel>
  </diagram>
</mxfile>
